<?xml version="1.0" standalone="no"?>
<!DOCTYPE svg PUBLIC "-//W3C//DTD SVG 20010904//EN"
 "http://www.w3.org/TR/2001/REC-SVG-20010904/DTD/svg10.dtd">
<svg version="1.0" xmlns="http://www.w3.org/2000/svg"
 width="1462.000000pt" height="1043.000000pt" viewBox="0 0 1462.000000 1043.000000"
 preserveAspectRatio="xMidYMid meet">
<metadata>
Created by potrace 1.16, written by Peter Selinger 2001-2019
</metadata>
<g transform="translate(0.000000,1043.000000) scale(0.100000,-0.100000)"
fill="#000000" stroke="none">
<path d="M478 10100 c-23 -76 -19 8 -108 -2445 -5 -148 -12 -317 -15 -375 -3
-58 -10 -240 -15 -405 -6 -165 -12 -347 -15 -405 -5 -104 -12 -286 -18 -489
-2 -88 -5 -106 -22 -120 -21 -17 -45 -55 -45 -68 0 -5 5 -1 11 7 9 12 10 10 6
-8 -4 -18 -3 -21 8 -12 7 6 11 19 8 29 -3 10 1 22 7 26 9 5 10 1 5 -15 -5 -15
-4 -20 4 -16 7 5 11 -9 11 -45 0 -43 -5 -57 -32 -88 -41 -47 -56 -55 -74 -41
-11 10 -14 9 -14 -3 0 -28 -39 -758 -45 -834 l-5 -73 182 0 c160 0 182 2 195
17 14 17 14 17 9 1 -3 -10 -1 -18 4 -18 6 0 10 9 10 20 0 27 18 25 23 -2 3
-18 5 -17 6 7 1 17 5 25 9 19 9 -13 54 -44 64 -44 4 0 5 7 2 15 -3 8 -11 13
-17 12 -13 -3 -44 50 -34 59 10 10 77 -55 78 -75 0 -11 2 -12 6 -3 4 10 8 10
19 1 8 -7 17 -9 20 -6 3 3 -4 10 -15 17 -15 8 -21 21 -22 48 0 29 -7 42 -30
60 -16 13 -29 19 -29 13 0 -5 11 -18 25 -29 14 -11 25 -28 25 -38 -1 -18 -1
-18 -14 -1 -7 9 -20 17 -29 17 -19 0 -39 33 -36 58 3 37 -4 45 -11 12 -4 -21
-7 24 -7 110 0 80 2 126 4 103 3 -27 10 -43 21 -48 14 -5 15 -4 5 6 -7 7 -13
24 -13 39 0 24 2 22 40 -20 21 -25 39 -51 40 -59 0 -8 3 -11 7 -7 9 9 73 -54
73 -73 0 -8 3 -11 7 -8 3 4 13 1 22 -5 12 -10 12 -8 -2 8 -9 11 -17 27 -17 34
0 7 -3 10 -7 6 -4 -3 -22 8 -40 26 -24 23 -33 41 -33 64 0 18 -4 35 -9 38 -4
3 -6 -7 -3 -22 l4 -27 -37 36 c-25 25 -38 47 -40 70 -5 47 -6 48 -15 14 -4
-16 -8 147 -9 363 -1 312 2 392 12 386 9 -6 9 -4 0 7 -7 7 -14 27 -14 44 l-2
30 -4 -29 c-3 -16 -18 -43 -35 -60 -27 -28 -30 -29 -25 -8 3 12 1 20 -4 16 -5
-3 -9 -14 -9 -26 0 -23 -34 -71 -44 -61 -6 7 -9 -17 -7 -53 1 -11 -7 -28 -19
-39 -24 -21 -27 -9 -4 23 14 20 14 24 0 38 -23 22 -22 121 2 147 9 11 11 17 5
13 -21 -12 -15 19 9 50 l22 29 -23 -20 -23 -20 6 405 c3 223 8 461 11 530 3
69 10 325 15 570 5 245 12 517 15 605 3 88 7 243 10 345 9 330 24 847 36 1230
6 206 9 398 7 425 l-3 50 -17 -55z m72 -4206 c0 -14 -4 -23 -10 -19 -5 3 -10
0 -10 -7 0 -14 -35 -49 -42 -42 -2 2 -12 -10 -22 -26 -21 -36 -8 -39 22 -5 12
14 26 25 31 25 5 0 12 10 17 23 6 16 9 5 11 -43 3 -40 0 -66 -6 -68 -6 -2 -12
-18 -12 -35 -1 -25 -3 -27 -6 -9 -4 19 -7 21 -19 11 -12 -10 -13 -9 -8 5 3 9
1 16 -5 16 -6 0 -11 -4 -11 -10 0 -17 -18 -11 -23 8 -3 9 -5 -4 -6 -30 0 -26
-5 -50 -11 -53 -5 -3 -11 -21 -11 -38 -1 -18 -3 -24 -6 -14 -4 14 -8 16 -19 6
-12 -10 -14 -2 -14 47 0 50 4 64 29 91 18 21 27 41 24 55 -3 17 9 36 47 72 27
27 50 53 50 58 0 4 2 8 5 8 3 0 5 -12 5 -26z"/>
<path d="M6345 9597 c-33 -24 -115 -80 -182 -126 l-121 -83 -74 16 c-114 25
-428 56 -562 56 -399 -1 -824 -152 -1071 -382 -327 -304 -613 -764 -763 -1229
-22 -68 -43 -138 -47 -155 -4 -24 -20 -41 -60 -68 -30 -20 -57 -36 -59 -36 -3
0 -92 42 -198 94 -448 219 -870 313 -1433 321 -267 3 -456 -9 -732 -46 l-163
-22 1 -121 c0 -66 10 -794 22 -1616 l22 -1495 79 -3 78 -3 -6 408 c-3 224 -9
825 -12 1336 l-6 927 44 0 45 0 6 -477 c4 -263 9 -818 12 -1233 3 -415 8 -812
11 -882 l5 -128 -310 0 -311 0 0 -700 c0 -427 4 -700 9 -700 5 0 40 6 78 14
300 63 674 79 892 36 64 -12 69 -15 54 -38 -7 -9 -48 -75 -92 -147 -110 -178
-111 -178 -30 -22 39 76 69 140 66 143 -14 15 -320 -542 -554 -1010 -127 -254
-483 -992 -483 -1001 0 -2 -26 -59 -59 -127 -118 -247 -431 -926 -431 -934 0
-2 9 -4 21 -4 16 0 36 33 105 175 48 98 82 180 78 186 -4 8 -3 9 4 5 7 -4 12
-2 12 5 0 7 11 35 24 63 82 173 106 227 106 241 0 8 5 15 11 15 6 0 8 7 5 17
-4 10 -4 14 0 10 4 -4 22 28 41 71 19 42 43 96 54 119 11 23 20 45 19 48 0 3
10 27 24 53 25 46 93 191 146 307 144 319 617 1277 642 1300 6 6 4 -3 -5 -20
-8 -16 -22 -48 -31 -70 -10 -22 -23 -53 -31 -70 -7 -16 -23 -55 -35 -85 -12
-30 -119 -264 -237 -520 -118 -256 -289 -629 -380 -830 -91 -201 -184 -408
-208 -460 -79 -174 -245 -550 -245 -555 0 -3 315 -5 700 -5 460 0 700 3 700
10 0 6 5 10 11 10 5 0 7 -4 4 -10 -4 -7 162 -10 489 -10 298 0 496 4 496 9 0
5 -20 175 -45 378 -99 819 -166 1467 -190 1833 -8 118 -21 316 -30 439 -9 123
-14 225 -12 227 6 6 193 -120 270 -183 133 -107 263 -242 467 -484 244 -288
267 -318 321 -411 209 -358 382 -878 493 -1483 20 -112 76 -461 76 -478 0 -2
75 18 168 45 92 26 363 97 602 158 427 108 720 187 730 197 3 3 -201 3 -452 0
l-458 -5 0 153 c0 84 3 160 6 169 5 13 60 14 470 9 l465 -6 -1 279 -2 279
4466 3 4466 2 0 180 0 179 -102 3 c-95 3 -103 4 -103 23 0 19 8 20 103 23
l102 3 0 179 0 180 -4470 0 -4470 0 -1 218 c-1 119 -4 633 -8 1142 -4 509 -7
926 -6 927 0 1 520 29 1155 63 635 33 2136 115 3335 182 l2180 122 1285 6
1285 5 -1245 2 -1245 2 -3525 -168 c-1939 -92 -3529 -164 -3534 -160 -6 5 -3
11 5 14 8 3 1580 79 3495 170 l3481 165 1281 0 1282 0 0 230 c0 223 -1 230
-20 230 -11 0 -20 7 -20 15 0 8 9 15 20 15 19 0 20 7 20 220 l0 220 -1217 0
-1218 -1 -3535 166 c-1944 92 -3546 169 -3559 171 -136 28 287 11 3480 -141
l3485 -165 1282 0 c848 0 1282 3 1282 10 0 7 -432 10 -1275 10 l-1276 0 -3537
195 c-1945 107 -3576 197 -3625 201 l-87 6 -77 112 c-104 149 -200 267 -449
552 -194 222 -416 453 -456 475 -20 11 -27 30 75 -224 49 -122 54 -138 39
-146 -33 -18 -196 -81 -208 -81 -7 0 -17 7 -21 15 -10 17 -160 45 -242 45 -39
0 -81 -9 -134 -30 -43 -16 -80 -30 -82 -30 -5 0 -38 90 -34 93 2 2 25 20 51
40 l47 38 13 -24 13 -24 120 29 c66 16 135 27 153 26 20 -3 31 0 28 6 -2 6
-19 48 -37 93 l-32 83 28 22 c16 13 62 48 102 78 40 30 398 300 795 600 1530
1154 1551 1169 1563 1153 10 -14 20 -14 91 2 43 10 83 22 88 26 5 4 -24 11
-63 15 -60 5 -69 9 -60 21 7 7 69 55 138 106 69 50 135 99 146 108 86 71 80
61 65 113 -7 26 -14 57 -15 69 -1 12 -3 28 -4 35 -2 21 -21 13 -90 -36 -89
-65 -85 -63 -99 -42 -10 17 -2 25 71 76 45 31 84 58 86 60 6 5 -9 54 -17 54
-4 -1 -34 -20 -67 -43z m-599 -282 l33 -80 -27 -22 c-15 -13 -29 -23 -32 -23
-3 0 -24 48 -47 106 l-42 105 42 -3 41 -3 32 -80z m-188 -65 c50 -125 52 -135
36 -147 -10 -7 -21 -13 -24 -13 -10 0 -120 282 -114 292 3 5 15 8 27 6 17 -2
32 -30 75 -138z m-84 -30 c56 -140 61 -167 30 -177 -9 -3 -134 290 -134 316 0
7 9 11 23 9 18 -2 32 -27 81 -148z m-79 -31 l68 -172 -24 -18 c-13 -10 -28
-19 -34 -19 -11 0 -151 347 -144 355 5 4 50 23 60 24 3 1 36 -76 74 -170z
m-99 -54 c71 -178 76 -205 39 -205 -14 0 -166 370 -158 383 3 5 14 7 26 5 17
-2 34 -36 93 -183z m-80 -40 c75 -189 77 -196 58 -210 -10 -8 -22 -15 -25 -15
-5 0 -116 264 -164 392 -6 15 6 23 42 27 6 0 46 -87 89 -194z m-86 -45 c76
-191 80 -205 64 -217 -10 -7 -22 -12 -27 -10 -9 3 -151 346 -163 393 -4 15 1
23 18 31 13 6 24 10 25 9 0 0 38 -93 83 -206z m-82 -48 l82 -207 -27 -22 c-16
-13 -31 -23 -34 -23 -6 0 -59 127 -160 382 l-19 48 28 14 c15 9 32 15 37 15 6
1 47 -93 93 -207z m-98 -71 l83 -204 -24 -18 c-13 -10 -29 -19 -35 -19 -10 0
-164 368 -176 417 -4 17 55 53 63 39 4 -6 44 -103 89 -215z m-303 158 c-4 -29
-8 -53 -10 -55 -2 -2 -32 -8 -66 -12 -71 -10 -72 -9 -85 76 l-6 42 86 0 87 0
-6 -51z m201 -211 c45 -112 82 -207 82 -213 0 -10 -69 -59 -75 -53 -2 2 -39
93 -83 203 l-80 200 31 33 c17 17 34 32 37 32 3 0 43 -91 88 -202z m-103 -94
l79 -196 -24 -19 c-14 -10 -28 -19 -31 -19 -3 0 -40 86 -82 192 l-77 192 22
23 c12 13 24 23 28 23 3 0 41 -88 85 -196z m-263 137 c4 -25 7 -46 5 -47 -1
-1 -41 -5 -89 -9 l-87 -7 -12 41 c-7 23 -9 44 -5 48 9 9 99 21 146 19 33 -1
35 -3 42 -45z m178 -207 l74 -186 -24 -19 c-14 -10 -27 -19 -30 -19 -3 0 -36
81 -74 180 -67 174 -68 180 -52 205 9 14 20 25 24 25 4 0 41 -84 82 -186z
m-351 34 c24 -83 22 -88 -51 -88 l-47 0 -21 66 c-29 95 -29 94 38 94 l59 0 22
-72z m271 -111 c59 -156 62 -169 47 -184 -9 -9 -18 -15 -20 -12 -2 2 -33 78
-70 167 -65 160 -66 164 -49 187 9 13 20 20 23 17 3 -4 34 -83 69 -175z m-71
-55 c34 -84 61 -156 61 -161 0 -10 -69 -56 -74 -50 -2 2 -28 67 -58 144 l-56
140 30 43 c16 24 31 42 33 40 2 -2 31 -72 64 -156z m-304 -22 c9 -28 15 -57
12 -64 -3 -8 -39 -25 -81 -39 l-75 -25 -25 76 c-15 43 -26 80 -26 84 0 8 48
14 127 16 l51 2 17 -50z m208 -79 c26 -62 47 -119 47 -127 0 -13 -47 -51 -54
-43 -1 2 -23 53 -47 114 -24 60 -45 112 -46 115 -6 11 39 72 46 64 4 -5 29
-60 54 -123z m-410 12 c15 -40 25 -73 23 -73 -2 0 -47 -16 -100 -35 -112 -40
-110 -50 -18 102 31 51 59 89 63 85 3 -4 18 -40 32 -79z m63 -188 c13 -38 24
-75 24 -81 0 -11 -133 -65 -155 -64 -16 1 -105 149 -94 156 21 12 175 63 188
61 8 -1 24 -32 37 -72z m-220 -86 c26 -39 42 -75 38 -79 -11 -10 -188 -79
-192 -75 -4 3 99 225 105 225 2 0 24 -32 49 -71z m-46 -214 c68 -14 125 -27
127 -29 2 -1 -76 -60 -173 -130 -96 -71 -177 -126 -180 -124 -6 7 92 308 101
308 1 0 58 -11 125 -25z m-1807 -489 c3 -7 19 -16 36 -19 38 -8 61 -50 61
-111 0 -41 3 -46 27 -52 50 -13 75 -47 80 -106 3 -29 12 -68 20 -87 12 -27 15
-64 11 -187 -2 -85 -1 -154 2 -154 3 0 11 -13 17 -30 14 -38 -2 -107 -28 -121
-15 -7 -19 -21 -19 -60 0 -52 -13 -89 -31 -89 -6 0 -22 -9 -36 -20 -22 -17
-25 -28 -29 -112 -6 -131 -21 -186 -56 -204 -38 -20 -236 -19 -262 1 -13 10
-44 15 -92 15 -44 0 -84 6 -101 15 -15 8 -40 17 -55 20 -20 4 -29 14 -39 42
-6 21 -16 44 -22 51 -9 12 -5 77 9 134 5 21 2 29 -11 34 -9 4 -39 29 -67 57
-41 41 -49 55 -50 87 0 45 34 100 63 100 13 0 19 7 20 23 0 12 0 141 0 286 1
145 4 274 9 286 5 13 24 26 52 35 54 18 67 34 68 87 0 35 5 46 33 67 32 25 34
26 208 26 140 0 178 -3 182 -14z m2877 -2296 c0 -531 -4 -860 -9 -860 -6 0
-13 5 -16 11 -10 16 6 1709 16 1709 5 0 9 -387 9 -860z m1530 645 l0 -75 -610
0 -610 0 0 75 0 75 610 0 610 0 0 -75z m-2 -212 l3 -73 -611 0 -610 0 0 75 0
75 608 -2 607 -3 3 -72z m2 -198 l0 -75 -610 0 -610 0 0 75 0 75 610 0 610 0
0 -75z m757 -139 c43 -18 58 -41 47 -70 -4 -11 -1 -16 10 -16 9 0 16 -5 16
-10 0 -6 -17 -10 -37 -9 -21 1 -67 -3 -103 -9 -127 -23 -336 -10 -401 24 -20
10 -29 22 -29 38 0 57 81 76 295 72 125 -2 169 -7 202 -20z m-2709 -92 c127
-10 232 -21 232 -24 0 -3 -105 -14 -232 -24 -128 -10 -241 -20 -250 -22 -12
-4 -18 0 -18 10 0 14 -31 16 -265 16 -258 0 -265 1 -265 20 0 19 7 20 265 20
234 0 265 2 265 16 0 10 6 14 18 10 9 -2 122 -12 250 -22z m1952 -244 l0 -70
-610 0 -610 0 0 70 0 70 610 0 610 0 0 -70z m398 -38 c4 -12 -3 -16 -50 -26
-19 -4 -28 -13 -28 -25 0 -23 39 -37 125 -46 59 -6 59 -6 32 10 -35 20 -33 50
6 79 25 18 42 21 140 21 95 0 117 -3 147 -21 73 -42 37 -94 -80 -115 -81 -14
-307 -7 -360 12 -100 34 -94 99 10 120 42 8 53 6 58 -9z m-403 -177 l0 -70
-610 0 -610 0 -3 59 c-2 32 -1 65 2 72 5 12 106 14 613 12 l608 -3 0 -70z m5
-200 l0 -75 -610 0 -610 0 0 75 0 75 610 0 610 0 0 -75z m-4587 -1326 c43 -12
83 -27 90 -33 7 -7 44 -19 82 -28 55 -13 65 -18 48 -23 -13 -4 -20 -11 -17
-17 3 -5 11 -5 17 0 7 5 30 4 57 -3 53 -13 43 -23 -32 -31 -29 -3 -56 -8 -60
-10 -4 -2 -9 0 -13 5 -3 6 -12 8 -20 4 -8 -3 -15 -1 -15 3 0 15 17 36 26 34 5
-1 10 3 12 9 4 13 -5 13 -33 2 -11 -5 -25 -4 -32 1 -7 5 -14 5 -18 -2 -9 -15
-25 -12 -25 5 0 8 -9 15 -19 15 -11 0 -28 3 -38 7 -15 6 -16 4 -5 -9 10 -13
10 -17 0 -21 -7 -2 -10 -8 -6 -12 4 -4 15 -2 24 5 13 12 17 11 24 0 6 -9 22
-13 45 -12 25 3 35 0 35 -11 0 -16 -76 -21 -86 -6 -9 15 -24 10 -25 -8 -1 -17
-2 -17 -6 -1 -2 10 -16 21 -29 24 -24 6 -24 7 -8 25 9 11 13 20 8 21 -24 4
-32 6 -66 22 -21 9 -44 16 -52 16 -8 0 -17 4 -20 9 -9 14 53 19 65 5 6 -7 19
-11 29 -9 11 2 22 0 25 -6 9 -14 22 -11 22 6 0 8 -5 14 -11 13 -6 -1 -21 4
-34 11 -13 7 -36 13 -53 13 -16 1 -29 5 -29 11 0 11 31 6 143 -24z m291 -928
c8 -12 -58 -30 -154 -41 -110 -13 -187 -13 -192 1 -2 7 -12 7 -32 -1 -16 -6
-37 -8 -45 -4 -9 4 -27 7 -41 8 -14 0 -27 5 -30 11 -3 6 50 10 140 12 80 1
177 6 215 11 95 13 133 14 139 3z m-5 -328 c-7 -10 -14 -19 -14 -20 -6 -13
-331 -53 -360 -44 -5 2 -28 3 -50 2 -35 0 -105 22 -105 34 0 2 48 4 108 4 59
1 118 3 132 6 14 3 43 8 65 11 22 3 69 8 105 13 36 5 80 9 99 10 30 1 32 -1
20 -16z m10 -214 c-13 -10 -28 -19 -34 -20 -5 0 -17 -2 -25 -4 -8 -3 -49 -9
-90 -15 -41 -6 -94 -15 -118 -19 -23 -5 -86 -9 -138 -10 -53 -1 -102 -5 -110
-8 -9 -3 -14 2 -14 16 0 23 -14 28 -26 10 -14 -23 -134 5 -134 31 0 5 73 6
161 4 89 -2 189 1 223 6 34 6 88 13 121 15 113 10 124 11 129 16 3 3 22 3 42
1 l37 -5 -24 -18z m21 -213 c0 -9 -10 -22 -22 -30 -33 -20 -299 -59 -403 -58
-252 1 -285 3 -307 22 l-22 17 23 12 c16 9 63 11 164 7 123 -4 181 -1 317 20
14 2 49 6 79 8 29 3 55 6 56 8 2 2 28 4 59 6 45 3 56 0 56 -12z m10 -267 c0
-5 -7 -9 -16 -9 -9 0 -18 -8 -21 -18 -5 -22 -81 -39 -253 -57 -25 -2 -70 -9
-100 -15 -48 -10 -109 -9 -345 5 -16 1 -45 2 -64 3 -28 2 -33 5 -28 22 3 13 0
20 -9 20 -8 0 -14 5 -14 10 0 6 31 10 74 10 51 0 76 4 79 13 3 9 9 8 23 -5 17
-14 38 -16 154 -13 74 2 150 9 169 14 19 6 37 9 40 6 4 -2 25 0 47 5 21 5 73
12 114 16 41 3 76 7 77 8 7 6 73 -8 73 -15z m-22 -345 c14 -21 18 -34 10 -32
-7 3 -24 1 -38 -4 -38 -15 -50 -17 -260 -49 -169 -26 -217 -29 -362 -27 -153
3 -168 5 -182 23 -13 17 -17 18 -25 5 -9 -12 -11 -12 -17 3 -3 10 -4 21 0 24
3 3 1 12 -5 20 -14 17 -27 16 204 14 149 -1 220 3 290 16 51 9 104 16 120 16
15 0 27 3 27 7 0 4 17 7 38 6 20 -1 51 2 67 5 17 4 48 7 70 8 35 1 43 -3 63
-35z m17 -374 c3 -4 -2 -21 -10 -36 l-15 -29 38 -4 c30 -2 14 -8 -78 -27 -95
-21 -296 -59 -424 -82 -20 -3 -33 0 -41 12 -12 15 -15 15 -47 -3 -26 -16 -48
-20 -99 -18 -76 4 -89 10 -89 43 0 16 -5 24 -12 21 -7 -2 -12 -11 -12 -20 1
-9 -3 -14 -8 -11 -5 3 -18 -2 -28 -11 -13 -12 -27 -15 -54 -10 -25 5 -36 4
-36 -4 0 -7 5 -9 10 -6 6 3 10 -1 10 -9 0 -9 -6 -16 -14 -16 -8 0 -17 -6 -20
-12 -3 -7 -4 -1 -1 13 6 30 -2 34 -98 45 -31 4 -57 11 -57 16 0 4 -11 6 -25 2
-14 -3 -25 -2 -25 4 0 5 -6 10 -12 9 -36 -1 -58 4 -58 13 0 7 15 9 38 5 27 -4
32 -3 17 4 -21 10 -21 10 8 16 27 5 30 11 18 33 -7 13 -17 18 -30 15 -10 -3
-21 0 -25 5 -3 6 7 9 25 8 16 -1 34 -8 38 -15 5 -7 14 -10 20 -7 6 4 11 2 11
-4 0 -8 9 -10 26 -6 14 4 23 3 20 -2 -6 -10 36 -8 53 2 5 4 33 7 61 7 28 1 53
6 56 11 3 5 12 4 20 -3 17 -14 308 -17 364 -4 34 8 69 13 100 16 8 0 50 7 94
15 43 8 95 14 116 14 21 0 52 6 69 13 31 13 97 11 106 -3z"/>
<path d="M1775 7247 c-10 -52 -55 -93 -111 -102 -32 -4 -56 -16 -76 -35 -65
-66 -14 -206 79 -213 20 -2 29 -10 39 -37 7 -19 13 -47 13 -63 2 -52 125 -94
149 -51 6 11 11 13 16 5 9 -14 43 -14 51 -1 13 21 -15 39 -53 34 -20 -2 -31
-2 -24 2 18 9 4 24 -23 24 -23 0 -40 24 -29 41 3 5 13 9 23 9 35 0 40 23 43
184 l3 158 -37 -6 -38 -6 0 39 c0 50 -17 62 -25 18z"/>
<path d="M1529 6689 c-11 -36 -16 -40 -43 -39 -17 1 -36 2 -42 1 -28 -2 -27
-71 1 -71 8 0 25 -11 40 -24 14 -13 47 -29 73 -36 26 -7 72 -20 102 -30 85
-27 180 -44 189 -34 5 5 19 51 31 103 18 75 20 95 10 101 -12 7 -316 70 -340
70 -5 0 -15 -18 -21 -41z"/>
<path d="M1541 6362 c-22 -41 6 -54 160 -79 193 -30 319 -39 347 -24 22 11 31
54 14 65 -4 2 -35 -4 -67 -15 -81 -28 -147 -29 -174 -5 -17 16 -31 18 -82 13
-49 -4 -59 -3 -55 9 7 17 -8 26 -59 35 -22 3 -48 10 -57 13 -11 5 -20 1 -27
-12z"/>
<path d="M6785 5302 c-22 -4 -46 -11 -52 -15 -22 -14 -14 -37 15 -48 37 -15
307 -15 360 0 49 14 55 36 15 53 -33 13 -280 20 -338 10z"/>
<path d="M6943 4915 c-39 -17 -41 -28 -11 -49 15 -11 45 -16 93 -16 108 0 159
37 91 65 -44 19 -131 19 -173 0z"/>
<path d="M601 8261 c-1 -41 26 -131 171 -581 84 -259 87 -267 88 -233 0 27
-160 564 -235 788 l-23 70 -1 -44z"/>
<path d="M7955 4379 c-470 -40 -919 -178 -1213 -372 -257 -170 -403 -358 -463
-597 -67 -265 51 -603 286 -817 449 -413 1362 -541 2538 -357 155 25 167 28
167 48 0 11 7 113 15 226 8 113 15 213 15 223 0 14 -9 17 -49 17 l-50 0 -55
-72 c-168 -224 -393 -367 -666 -426 -209 -46 -471 -49 -785 -10 -97 11 -102
13 -190 72 -177 118 -342 314 -413 492 -72 178 -98 381 -73 567 39 293 197
583 405 742 110 83 221 125 431 162 142 24 511 24 645 0 219 -40 399 -115 503
-208 52 -46 124 -136 115 -143 -3 -3 -415 -26 -456 -26 -21 0 -23 -4 -20 -42
3 -40 5 -43 42 -50 51 -11 90 -40 110 -83 15 -31 16 -77 14 -409 -3 -428 1
-406 -94 -426 l-54 -11 0 -40 0 -39 345 0 345 0 0 40 c0 37 -2 39 -37 45 -79
14 -110 26 -134 51 l-24 26 -3 337 -3 337 48 46 c43 39 136 88 148 77 2 -3 0
-22 -5 -44 -20 -85 12 -165 82 -201 40 -21 126 -21 165 0 118 61 140 262 39
362 -102 103 -252 79 -405 -62 l-71 -66 0 76 0 75 33 -13 c70 -29 109 25 89
124 -14 67 -45 165 -74 231 l-19 47 -102 21 c-166 34 -273 50 -441 66 -171 16
-513 18 -681 4z"/>
<path d="M7736 3924 c-216 -52 -372 -221 -412 -446 -60 -328 112 -615 414
-693 82 -21 265 -21 347 0 223 57 374 214 419 437 69 335 -99 624 -409 703
-75 19 -278 19 -359 -1z m271 -92 c92 -50 142 -261 130 -547 -14 -302 -80
-428 -223 -427 -101 1 -164 69 -200 218 -22 87 -25 434 -6 534 17 86 65 184
104 211 52 37 137 42 195 11z"/>
<path d="M10141 3925 c-126 -28 -248 -103 -287 -177 -22 -42 -18 -119 9 -159
32 -48 79 -69 155 -69 148 0 200 80 157 240 -8 30 -13 55 -12 56 24 19 83 37
123 38 103 1 143 -61 152 -234 l5 -106 -49 -21 c-27 -11 -127 -46 -222 -78
-202 -68 -282 -112 -329 -180 -43 -62 -56 -114 -51 -205 6 -90 30 -143 89
-194 62 -53 122 -69 237 -64 83 3 107 8 162 34 36 17 86 50 112 73 25 22 48
41 51 41 2 0 10 -13 17 -30 20 -48 81 -96 140 -110 78 -19 221 -9 295 21 59
24 60 25 60 64 l0 40 -63 5 c-54 4 -67 9 -88 33 -13 16 -24 40 -25 55 -1 15
-2 178 -3 362 -1 322 -2 337 -23 382 -12 26 -34 63 -48 83 -34 44 -130 92
-210 105 -85 14 -278 11 -354 -5z m297 -727 l-3 -167 -35 -36 c-79 -82 -201
-69 -240 26 -18 43 -9 166 16 214 26 51 98 105 188 144 86 36 80 51 74 -181z"/>
<path d="M11360 3922 c-85 -23 -147 -60 -203 -122 -56 -62 -77 -122 -77 -216
0 -100 27 -170 92 -235 60 -60 127 -95 278 -144 198 -64 240 -97 240 -189 0
-103 -63 -156 -185 -156 -143 0 -260 92 -355 278 -29 58 -34 62 -66 62 l-34 0
0 -98 c0 -55 3 -147 7 -205 l6 -107 39 0 c35 0 41 4 53 34 l14 34 80 -34 c108
-47 215 -67 316 -59 151 11 248 48 331 127 66 63 96 129 102 229 6 108 -14
173 -78 242 -60 66 -130 104 -280 152 -206 67 -250 102 -250 197 0 67 41 112
114 129 133 29 277 -63 347 -224 23 -54 26 -57 62 -57 l37 0 -5 118 c-3 64 -8
150 -11 190 l-6 72 -38 0 c-34 0 -39 -4 -49 -31 -7 -20 -16 -29 -25 -26 -145
56 -335 72 -456 39z"/>
<path d="M12583 3926 c-169 -42 -311 -162 -383 -321 -40 -89 -52 -149 -51
-260 1 -183 55 -328 160 -429 67 -63 155 -110 246 -131 79 -19 236 -21 297 -5
119 33 247 131 315 243 19 32 34 59 32 61 -2 1 -20 15 -40 30 l-37 27 -25 -43
c-32 -55 -100 -123 -146 -144 -53 -25 -161 -30 -215 -10 -49 19 -123 92 -154
152 -53 105 -72 249 -53 412 15 126 31 181 73 252 40 66 84 94 150 94 72 0 86
-18 69 -91 -34 -152 -23 -211 46 -254 53 -33 150 -37 206 -10 59 29 82 73 81
161 -1 80 -25 131 -90 188 -75 67 -136 85 -294 88 -89 2 -153 -1 -187 -10z"/>
<path d="M13680 3917 c-104 -31 -173 -71 -242 -141 -103 -104 -158 -251 -158
-421 0 -177 52 -309 165 -422 117 -117 239 -163 430 -164 310 0 521 153 590
426 23 91 23 247 0 335 -52 200 -203 347 -406 395 -100 23 -286 19 -379 -8z
m299 -89 c88 -62 124 -204 124 -483 -1 -304 -57 -457 -178 -482 -119 -26 -201
43 -242 200 -26 103 -26 490 0 587 20 75 60 144 99 173 49 37 148 39 197 5z"/>
<path d="M5580 1055 l0 -205 55 0 55 0 0 205 0 205 -55 0 -55 0 0 -205z"/>
<path d="M9890 1251 c-78 -24 -144 -86 -156 -146 -29 -157 69 -258 252 -258
69 0 92 4 131 25 41 21 93 76 93 98 0 3 -24 11 -52 17 -39 8 -54 8 -57 -1 -10
-26 -61 -65 -95 -71 -45 -9 -120 17 -141 48 -21 33 -29 100 -16 140 19 58 53
81 125 85 59 4 65 2 99 -28 34 -30 40 -31 87 -25 27 4 50 12 50 17 0 24 -79
85 -123 97 -51 12 -158 13 -197 2z"/>
<path d="M12180 1055 l0 -205 50 0 50 0 0 205 0 205 -50 0 -50 0 0 -205z"/>
<path d="M12443 1222 c-35 -13 -42 -21 -45 -46 -2 -23 -9 -32 -25 -34 -18 -3
-23 -10 -23 -33 0 -24 4 -29 25 -29 25 0 25 -1 25 -91 0 -50 5 -99 10 -109 14
-25 72 -41 126 -33 40 5 44 8 44 34 0 26 -3 29 -34 29 -40 0 -46 13 -46 108
l0 62 40 0 c38 0 40 2 40 29 0 27 -3 30 -37 33 -38 3 -38 3 -41 51 -3 53 -1
52 -59 29z"/>
<path d="M5945 1130 c-47 -24 -45 -24 -45 -5 0 11 -12 15 -50 15 l-50 0 0
-145 0 -145 49 0 48 0 5 102 c5 90 8 104 28 120 13 10 38 18 61 18 58 0 69
-23 69 -142 l0 -98 56 0 57 0 -5 113 c-2 63 -10 122 -17 135 -27 51 -136 68
-206 32z"/>
<path d="M6330 1127 c-75 -40 -100 -119 -60 -196 37 -73 145 -102 225 -61 22
11 41 20 42 20 2 0 3 -15 3 -34 0 -25 -7 -39 -22 -50 -28 -20 -102 -21 -120
-2 -8 7 -39 16 -71 20 -53 7 -57 6 -57 -13 0 -52 102 -88 218 -78 74 7 108 22
135 59 18 24 21 47 25 188 l5 160 -52 0 c-39 0 -51 -4 -51 -15 0 -19 2 -19
-45 5 -53 27 -121 26 -175 -3z m185 -62 c52 -51 19 -140 -57 -152 -32 -5 -41
-1 -68 25 -61 62 -26 152 60 152 30 0 47 -6 65 -25z"/>
<path d="M6827 1136 c-75 -28 -115 -91 -104 -163 8 -50 31 -80 79 -104 85 -43
245 -20 277 40 9 16 6 19 -21 25 -44 9 -78 7 -78 -3 0 -16 -58 -33 -89 -26
-17 4 -38 16 -46 28 -31 44 -24 47 121 47 l136 0 -7 37 c-9 48 -38 89 -78 109
-43 23 -143 28 -190 10z"/>
<path d="M7331 1130 c-52 -24 -51 -24 -51 -5 0 11 -12 15 -45 15 l-45 0 0
-145 0 -145 49 0 49 0 4 101 c3 92 5 103 27 120 27 22 79 25 107 5 16 -12 19
-29 22 -120 l4 -106 49 0 49 0 0 118 c0 134 -8 155 -68 172 -55 15 -102 12
-151 -10z"/>
<path d="M7940 1128 c-86 -44 -116 -136 -67 -209 33 -49 84 -71 170 -72 77 0
119 15 157 56 l21 22 -23 7 c-44 12 -79 8 -108 -13 -22 -17 -37 -20 -61 -15
-39 8 -69 32 -69 58 0 17 10 18 135 18 l135 0 -7 33 c-16 87 -68 127 -171 134
-56 4 -74 1 -112 -19z"/>
<path d="M8443 1131 c-27 -17 -33 -18 -33 -6 0 11 -12 15 -50 15 l-50 0 0
-145 0 -145 55 0 55 0 0 95 c0 83 3 98 21 116 17 17 29 20 60 16 36 -5 41 -2
55 25 8 16 13 32 10 35 -3 3 -24 7 -48 10 -32 3 -52 -1 -75 -16z"/>
<path d="M8705 1135 c-83 -32 -125 -101 -106 -173 20 -73 92 -114 202 -114
196 -2 284 179 132 269 -56 33 -166 41 -228 18z m173 -80 c30 -36 30 -88 -3
-120 -37 -37 -106 -35 -146 4 -31 31 -35 53 -19 96 22 57 125 69 168 20z"/>
<path d="M9145 1135 c-102 -36 -98 -120 8 -149 29 -8 78 -20 109 -26 64 -13
80 -27 53 -47 -28 -20 -98 -16 -128 7 -16 13 -40 20 -69 20 -53 0 -61 -6 -47
-32 25 -47 162 -76 261 -55 56 12 98 51 98 93 0 42 -22 57 -115 79 -118 27
-145 35 -145 45 0 15 18 21 71 22 33 0 56 -6 68 -16 15 -14 28 -15 66 -9 l47
8 -20 26 c-38 47 -170 65 -257 34z"/>
<path d="M10399 1135 c-68 -22 -109 -72 -109 -133 0 -87 44 -131 150 -150 136
-25 248 35 257 135 5 61 -20 104 -79 134 -55 28 -156 34 -219 14z m167 -76
c33 -31 33 -91 -1 -124 -18 -19 -35 -25 -69 -25 -78 0 -115 53 -91 128 16 52
115 64 161 21z"/>
<path d="M10931 1130 c-52 -24 -51 -24 -51 -5 0 11 -12 15 -45 15 l-45 0 0
-145 0 -145 49 0 49 0 4 101 c3 92 5 103 27 120 14 11 39 19 62 19 58 0 69
-23 69 -142 l0 -98 50 0 50 0 0 116 c0 63 -5 124 -11 136 -25 47 -132 62 -208
28z"/>
<path d="M11316 1137 c-74 -23 -98 -96 -42 -132 12 -8 65 -24 117 -36 106 -23
124 -33 95 -55 -34 -24 -146 -11 -146 18 0 9 -93 11 -103 2 -13 -14 17 -47 60
-66 49 -21 142 -28 205 -15 50 10 98 52 98 84 0 57 -31 74 -188 104 -64 12
-82 23 -65 40 17 17 112 13 132 -5 13 -12 29 -15 64 -10 42 6 45 8 36 26 -27
50 -167 74 -263 45z"/>
<path d="M12750 1138 c-75 -21 -120 -75 -120 -143 0 -77 51 -125 150 -143 98
-18 183 8 235 70 24 28 27 38 23 87 -4 48 -9 59 -42 87 -57 49 -160 67 -246
42z m134 -62 c36 -15 49 -41 48 -91 -2 -70 -114 -104 -167 -50 -33 32 -34 93
-2 122 39 36 70 41 121 19z"/>
<path d="M13257 1130 c-30 -24 -37 -25 -37 -5 0 11 -12 15 -50 15 l-50 0 0
-145 0 -145 54 0 54 0 4 94 c5 118 20 141 85 133 39 -4 43 -2 54 25 10 25 10
31 -2 39 -25 16 -85 10 -112 -11z"/>
<path d="M13507 1136 c-22 -8 -50 -24 -63 -37 -46 -44 -56 -130 -19 -185 55
-85 274 -91 331 -10 13 19 13 21 -8 28 -44 12 -78 8 -98 -12 -11 -11 -31 -20
-45 -20 -51 0 -106 44 -89 71 3 5 64 9 136 9 l131 0 -6 37 c-13 78 -73 123
-170 129 -39 3 -76 -1 -100 -10z"/>
<path d="M13915 1135 c-22 -8 -45 -22 -52 -32 -20 -26 -16 -70 8 -92 20 -18
133 -51 177 -51 10 0 27 -7 38 -15 19 -15 19 -15 0 -30 -29 -22 -98 -19 -129
5 -26 21 -111 29 -121 12 -8 -14 33 -53 73 -69 57 -25 186 -21 239 6 71 36 78
102 14 135 -15 8 -66 22 -112 30 -85 17 -118 32 -102 48 16 16 112 11 131 -6
13 -12 29 -15 64 -10 26 4 47 10 47 14 0 15 -49 51 -81 60 -49 14 -147 12
-194 -5z"/>
<path d="M7660 995 l0 -145 55 0 55 0 0 145 0 145 -55 0 -55 0 0 -145z"/>
<path d="M11700 1024 c0 -114 0 -116 29 -145 30 -29 54 -35 131 -30 19 2 50
11 68 22 41 24 42 24 42 -1 0 -17 7 -20 45 -20 l45 0 0 145 0 145 -50 0 -50 0
0 -74 c0 -107 -8 -134 -43 -152 -42 -22 -95 -11 -107 22 -6 14 -10 66 -10 115
l0 89 -50 0 -50 0 0 -116z"/>
<path d="M4610 580 l0 -110 4880 0 4880 0 0 110 0 110 -4880 0 -4880 0 0 -110z"/>
</g>
</svg>
